<svg width="169" height="171" viewBox="0 0 169 171" fill="none" xmlns="http://www.w3.org/2000/svg">
<path d="M168.639 84.3195C168.639 130.888 130.888 168.639 84.3195 168.639C37.7511 168.639 0 130.888 0 84.3195C0 37.7511 37.7511 0 84.3195 0C130.888 0 168.639 37.7511 168.639 84.3195Z" fill="#FEE304"/>
<path d="M95.9372 55.0231C100.91 46.0186 113.554 34.8519 118.202 36.5956C123.349 38.528 121.876 45.1609 121.55 54.9971C121.798 58.1111 120.081 67.1473 117.829 72.8179C121.253 78.6975 123.215 85.5345 123.215 92.8288C123.214 100.155 121.232 107.018 117.78 112.915C126.074 124.733 130.178 137.37 130.178 155.09C130.178 155.09 111.175 174.899 84.3195 168.639C58.1746 176.399 35.503 153.846 35.503 153.846C35.503 136.127 40.7114 124.732 49.0044 112.915C45.5528 107.018 43.5728 100.155 43.5727 92.8288C43.5727 85.399 45.609 78.4439 49.1518 72.4915C46.9638 66.8063 45.3238 58.0517 45.5663 54.9971C45.2407 45.1608 43.7649 38.528 48.912 36.5956C53.5437 34.8575 66.1141 45.945 71.1216 54.9336C74.9872 53.6825 79.1128 53.0064 83.3951 53.0064C87.7772 53.0065 91.9939 53.7154 95.9372 55.0231Z" fill="black"/>
</svg>
