<svg width="57" height="57" viewBox="0 0 57 57" fill="none" xmlns="http://www.w3.org/2000/svg">
<path d="M57 28.5C57 44.2401 44.2401 57 28.5 57C12.7599 57 0 44.2401 0 28.5C0 12.7599 12.7599 0 28.5 0C44.2401 0 57 12.7599 57 28.5Z" fill="#FEE304"/>
<path d="M32.4268 18.5978C34.1075 15.5543 38.3813 11.7799 39.9522 12.3693C41.6919 13.0225 41.194 15.2644 41.084 18.589C41.1676 19.6416 40.5873 22.6958 39.8262 24.6125C40.9835 26.5998 41.6465 28.9107 41.6465 31.3761C41.6465 33.8525 40.9765 36.172 39.8096 38.1652C42.6129 42.1596 44 46.4312 44 52.4205C44 52.4205 37.4199 57.0003 28.5 57C19.58 57 12 52 12 52C12 46.011 13.7604 42.1596 16.5635 38.1652C15.3968 36.1721 14.7276 33.8523 14.7276 31.3761C14.7276 28.8649 15.4159 26.514 16.6133 24.5021C15.8737 22.5805 15.3194 19.6215 15.4014 18.589C15.2914 15.2644 14.7926 13.0225 16.5323 12.3693C18.0978 11.7818 22.3466 15.5294 24.0391 18.5675C25.3457 18.1447 26.7401 17.9162 28.1875 17.9162C29.6687 17.9162 31.0939 18.1558 32.4268 18.5978Z" fill="black"/>
<path d="M25.6972 27.0434C25.6972 25.8356 23.5469 25.8319 22.1863 26.2239C21.7693 26.344 21.3646 26.6675 21.5279 27.0696C21.8306 27.8152 23.0463 28.8103 23.9303 28.8103C25.1082 28.8103 25.6972 28.8103 25.6972 27.0434Z" fill="#FEE304"/>
<path d="M24.2099 27.3432C24.2099 27.897 23.9855 28.3459 23.7086 28.3459C23.4317 28.3459 23.2072 27.897 23.2072 27.3432C23.2072 26.7894 23.7465 25.8121 23.7086 26.5587C23.7465 25.8121 24.2099 26.7894 24.2099 27.3432Z" fill="black"/>
<path d="M30.8791 27.0434C30.8791 25.8356 33.0294 25.8319 34.3901 26.2239C34.8071 26.344 35.2117 26.6675 35.0484 27.0696C34.7457 27.8152 33.53 28.8103 32.646 28.8103C31.4681 28.8103 30.8791 28.8103 30.8791 27.0434Z" fill="#FEE304"/>
<path d="M32.3664 27.3432C32.3664 27.897 32.5909 28.3459 32.8678 28.3459C33.1447 28.3459 33.3691 27.897 33.3691 27.3432C33.3691 26.7894 32.8298 25.8121 32.8678 26.5587C32.8298 25.8121 32.3664 26.7894 32.3664 27.3432Z" fill="black"/>
</svg>
