<svg width="169" height="171" viewBox="0 0 169 171" fill="none" xmlns="http://www.w3.org/2000/svg">
<path d="M168.639 84.3195C168.639 130.888 130.888 168.639 84.3195 168.639C37.7511 168.639 0 130.888 0 84.3195C0 37.7511 37.7511 0 84.3195 0C130.888 0 168.639 37.7511 168.639 84.3195Z" fill="#FEE304"/>
<path d="M95.9372 55.0231C100.91 46.0186 113.554 34.8519 118.202 36.5956C123.349 38.528 121.876 45.1609 121.55 54.9971C121.798 58.1111 120.081 67.1473 117.829 72.8179C121.253 78.6975 123.215 85.5345 123.215 92.8288C123.214 100.155 121.232 107.018 117.78 112.915C126.074 124.733 130.178 137.37 130.178 155.09C130.178 155.09 111.175 174.899 84.3195 168.639C58.1746 176.399 35.503 153.846 35.503 153.846C35.503 136.127 40.7114 124.732 49.0044 112.915C45.5528 107.018 43.5728 100.155 43.5727 92.8288C43.5727 85.399 45.609 78.4439 49.1518 72.4915C46.9638 66.8063 45.3238 58.0517 45.5663 54.9971C45.2407 45.1608 43.7649 38.528 48.912 36.5956C53.5437 34.8575 66.1141 45.945 71.1216 54.9336C74.9872 53.6825 79.1128 53.0064 83.3951 53.0064C87.7772 53.0065 91.9939 53.7154 95.9372 55.0231Z" fill="black"/>
<path d="M76.0272 80.0102C76.0272 76.4366 69.6654 76.4257 65.6399 77.5854C64.4061 77.9408 63.209 78.8981 63.6921 80.0877C64.5877 82.2935 68.1844 85.2376 70.7997 85.2376C74.2847 85.2376 76.0272 85.2376 76.0272 80.0102Z" fill="#FEE304"/>
<path d="M71.627 80.897C71.627 82.5354 70.9629 83.8636 70.1437 83.8636C69.3245 83.8636 68.6604 82.5354 68.6604 80.897C68.6604 79.2586 70.256 76.3671 70.1437 78.5759C70.256 76.3671 71.627 79.2586 71.627 80.897Z" fill="black"/>
<path d="M91.3584 80.0102C91.3584 76.4366 97.7202 76.4257 101.746 77.5854C102.98 77.9408 104.177 78.8981 103.694 80.0877C102.798 82.2935 99.2012 85.2376 96.5859 85.2376C93.101 85.2376 91.3584 85.2376 91.3584 80.0102Z" fill="#FEE304"/>
<path d="M95.7586 80.897C95.7586 82.5354 96.4228 83.8636 97.242 83.8636C98.0612 83.8636 98.7253 82.5354 98.7253 80.897C98.7253 79.2586 97.1297 76.3671 97.242 78.5759C97.1297 76.3671 95.7586 79.2586 95.7586 80.897Z" fill="black"/>
</svg>
